<svg xmlns="http://www.w3.org/2000/svg" width="1080" height="1920" viewBox="0 0 1080 1920">
  <defs>
    <linearGradient id="sbg" x1="0" y1="0" x2="0" y2="1">
      <stop offset="0" stop-color="#12172680"/><stop offset="0" stop-color="#121726"/><stop offset="1" stop-color="#080B14"/>
    </linearGradient>
    <linearGradient id="tbg" x1="0" y1="0" x2="0" y2="1">
      <stop offset="0" stop-color="#141A2A"/><stop offset="1" stop-color="#0A0D18"/>
    </linearGradient>
    <radialGradient id="halo" cx="50%" cy="50%" r="50%">
      <stop offset="0" stop-color="#5578DC" stop-opacity="0.45"/>
      <stop offset="1" stop-color="#5578DC" stop-opacity="0"/>
    </radialGradient>
    <clipPath id="stile"><rect x="302" y="499" width="475" height="475" rx="104"/></clipPath>
    <filter id="glow" x="-60%" y="-60%" width="220%" height="220%">
      <feGaussianBlur stdDeviation="16.8" result="b"/>
      <feMerge><feMergeNode in="b"/><feMergeNode in="b"/></feMerge>
    </filter>
    <filter id="textglow" x="-40%" y="-60%" width="180%" height="220%">
      <feGaussianBlur stdDeviation="14"/>
    </filter>
  </defs>
  <rect x="0" y="0" width="1080" height="1920" fill="url(#sbg)"/>
  <g opacity="0.22" stroke-linecap="round" fill="none">
      <path d="M 97 0 L 97 134" stroke="#B77CFF" stroke-width="14"/>
      <path d="M 972 173 L 972 384" stroke="#4ADE80" stroke-width="14"/>
      <path d="M 130 1766 L 130 1594 L 302 1594" stroke="#38BDF8" stroke-width="14"/>
      <path d="M 778 1651 L 778 1824 L 540 1824" stroke="#FB7185" stroke-width="14"/>
    </g>
  <circle cx="540" cy="736" r="285" fill="url(#halo)"/>
  <g clip-path="url(#stile)" transform="translate(302,499)">
    <rect x="0" y="0" width="475" height="475" fill="url(#tbg)"/>
    <circle cx="57.0" cy="57.0" r="2.9" fill="#ffffff" opacity="0.06"/><circle cx="57.0" cy="102.1" r="2.9" fill="#ffffff" opacity="0.06"/><circle cx="57.0" cy="147.2" r="2.9" fill="#ffffff" opacity="0.06"/><circle cx="57.0" cy="192.4" r="2.9" fill="#ffffff" opacity="0.06"/><circle cx="57.0" cy="237.5" r="2.9" fill="#ffffff" opacity="0.06"/><circle cx="57.0" cy="282.6" r="2.9" fill="#ffffff" opacity="0.06"/><circle cx="57.0" cy="327.8" r="2.9" fill="#ffffff" opacity="0.06"/><circle cx="57.0" cy="372.9" r="2.9" fill="#ffffff" opacity="0.06"/><circle cx="57.0" cy="418.0" r="2.9" fill="#ffffff" opacity="0.06"/><circle cx="102.1" cy="57.0" r="2.9" fill="#ffffff" opacity="0.06"/><circle cx="102.1" cy="102.1" r="2.9" fill="#ffffff" opacity="0.06"/><circle cx="102.1" cy="147.2" r="2.9" fill="#ffffff" opacity="0.06"/><circle cx="102.1" cy="192.4" r="2.9" fill="#ffffff" opacity="0.06"/><circle cx="102.1" cy="237.5" r="2.9" fill="#ffffff" opacity="0.06"/><circle cx="102.1" cy="282.6" r="2.9" fill="#ffffff" opacity="0.06"/><circle cx="102.1" cy="327.8" r="2.9" fill="#ffffff" opacity="0.06"/><circle cx="102.1" cy="372.9" r="2.9" fill="#ffffff" opacity="0.06"/><circle cx="102.1" cy="418.0" r="2.9" fill="#ffffff" opacity="0.06"/><circle cx="147.2" cy="57.0" r="2.9" fill="#ffffff" opacity="0.06"/><circle cx="147.2" cy="102.1" r="2.9" fill="#ffffff" opacity="0.06"/><circle cx="147.2" cy="147.2" r="2.9" fill="#ffffff" opacity="0.06"/><circle cx="147.2" cy="192.4" r="2.9" fill="#ffffff" opacity="0.06"/><circle cx="147.2" cy="237.5" r="2.9" fill="#ffffff" opacity="0.06"/><circle cx="147.2" cy="282.6" r="2.9" fill="#ffffff" opacity="0.06"/><circle cx="147.2" cy="327.8" r="2.9" fill="#ffffff" opacity="0.06"/><circle cx="147.2" cy="372.9" r="2.9" fill="#ffffff" opacity="0.06"/><circle cx="147.2" cy="418.0" r="2.9" fill="#ffffff" opacity="0.06"/><circle cx="192.4" cy="57.0" r="2.9" fill="#ffffff" opacity="0.06"/><circle cx="192.4" cy="102.1" r="2.9" fill="#ffffff" opacity="0.06"/><circle cx="192.4" cy="147.2" r="2.9" fill="#ffffff" opacity="0.06"/><circle cx="192.4" cy="192.4" r="2.9" fill="#ffffff" opacity="0.06"/><circle cx="192.4" cy="237.5" r="2.9" fill="#ffffff" opacity="0.06"/><circle cx="192.4" cy="282.6" r="2.9" fill="#ffffff" opacity="0.06"/><circle cx="192.4" cy="327.8" r="2.9" fill="#ffffff" opacity="0.06"/><circle cx="192.4" cy="372.9" r="2.9" fill="#ffffff" opacity="0.06"/><circle cx="192.4" cy="418.0" r="2.9" fill="#ffffff" opacity="0.06"/><circle cx="237.5" cy="57.0" r="2.9" fill="#ffffff" opacity="0.06"/><circle cx="237.5" cy="102.1" r="2.9" fill="#ffffff" opacity="0.06"/><circle cx="237.5" cy="147.2" r="2.9" fill="#ffffff" opacity="0.06"/><circle cx="237.5" cy="192.4" r="2.9" fill="#ffffff" opacity="0.06"/><circle cx="237.5" cy="237.5" r="2.9" fill="#ffffff" opacity="0.06"/><circle cx="237.5" cy="282.6" r="2.9" fill="#ffffff" opacity="0.06"/><circle cx="237.5" cy="327.8" r="2.9" fill="#ffffff" opacity="0.06"/><circle cx="237.5" cy="372.9" r="2.9" fill="#ffffff" opacity="0.06"/><circle cx="237.5" cy="418.0" r="2.9" fill="#ffffff" opacity="0.06"/><circle cx="282.6" cy="57.0" r="2.9" fill="#ffffff" opacity="0.06"/><circle cx="282.6" cy="102.1" r="2.9" fill="#ffffff" opacity="0.06"/><circle cx="282.6" cy="147.2" r="2.9" fill="#ffffff" opacity="0.06"/><circle cx="282.6" cy="192.4" r="2.9" fill="#ffffff" opacity="0.06"/><circle cx="282.6" cy="237.5" r="2.9" fill="#ffffff" opacity="0.06"/><circle cx="282.6" cy="282.6" r="2.9" fill="#ffffff" opacity="0.06"/><circle cx="282.6" cy="327.8" r="2.9" fill="#ffffff" opacity="0.06"/><circle cx="282.6" cy="372.9" r="2.9" fill="#ffffff" opacity="0.06"/><circle cx="282.6" cy="418.0" r="2.9" fill="#ffffff" opacity="0.06"/><circle cx="327.8" cy="57.0" r="2.9" fill="#ffffff" opacity="0.06"/><circle cx="327.8" cy="102.1" r="2.9" fill="#ffffff" opacity="0.06"/><circle cx="327.8" cy="147.2" r="2.9" fill="#ffffff" opacity="0.06"/><circle cx="327.8" cy="192.4" r="2.9" fill="#ffffff" opacity="0.06"/><circle cx="327.8" cy="237.5" r="2.9" fill="#ffffff" opacity="0.06"/><circle cx="327.8" cy="282.6" r="2.9" fill="#ffffff" opacity="0.06"/><circle cx="327.8" cy="327.8" r="2.9" fill="#ffffff" opacity="0.06"/><circle cx="327.8" cy="372.9" r="2.9" fill="#ffffff" opacity="0.06"/><circle cx="327.8" cy="418.0" r="2.9" fill="#ffffff" opacity="0.06"/><circle cx="372.9" cy="57.0" r="2.9" fill="#ffffff" opacity="0.06"/><circle cx="372.9" cy="102.1" r="2.9" fill="#ffffff" opacity="0.06"/><circle cx="372.9" cy="147.2" r="2.9" fill="#ffffff" opacity="0.06"/><circle cx="372.9" cy="192.4" r="2.9" fill="#ffffff" opacity="0.06"/><circle cx="372.9" cy="237.5" r="2.9" fill="#ffffff" opacity="0.06"/><circle cx="372.9" cy="282.6" r="2.9" fill="#ffffff" opacity="0.06"/><circle cx="372.9" cy="327.8" r="2.9" fill="#ffffff" opacity="0.06"/><circle cx="372.9" cy="372.9" r="2.9" fill="#ffffff" opacity="0.06"/><circle cx="372.9" cy="418.0" r="2.9" fill="#ffffff" opacity="0.06"/><circle cx="418.0" cy="57.0" r="2.9" fill="#ffffff" opacity="0.06"/><circle cx="418.0" cy="102.1" r="2.9" fill="#ffffff" opacity="0.06"/><circle cx="418.0" cy="147.2" r="2.9" fill="#ffffff" opacity="0.06"/><circle cx="418.0" cy="192.4" r="2.9" fill="#ffffff" opacity="0.06"/><circle cx="418.0" cy="237.5" r="2.9" fill="#ffffff" opacity="0.06"/><circle cx="418.0" cy="282.6" r="2.9" fill="#ffffff" opacity="0.06"/><circle cx="418.0" cy="327.8" r="2.9" fill="#ffffff" opacity="0.06"/><circle cx="418.0" cy="372.9" r="2.9" fill="#ffffff" opacity="0.06"/><circle cx="418.0" cy="418.0" r="2.9" fill="#ffffff" opacity="0.06"/>
  <g filter="url(#glow)">
    <path d="M 102.1 192.4 L 192.4 192.4 L 192.4 282.6 L 327.8 282.6 L 327.8 192.4" stroke="#38BDF8" stroke-width="28.0" fill="none" stroke-linecap="round" stroke-linejoin="round"/>
    <polygon points="327.8,155.4 357.4,210.1 298.1,210.1" fill="#38BDF8"/>
  </g>
  <path d="M 102.1 192.4 L 192.4 192.4 L 192.4 282.6 L 327.8 282.6 L 327.8 192.4" stroke="#38BDF8" stroke-width="28.0" fill="none" stroke-linecap="round" stroke-linejoin="round"/>
  <polygon points="327.8,155.4 357.4,210.1 298.1,210.1" fill="#38BDF8"/>
  <g filter="url(#glow)">
    <path d="M 102.1 102.1 L 237.5 102.1 L 237.5 192.4 L 147.2 192.4 L 147.2 327.8" stroke="#B77CFF" stroke-width="28.0" fill="none" stroke-linecap="round" stroke-linejoin="round"/>
    <polygon points="147.2,364.8 117.6,310.1 176.9,310.1" fill="#B77CFF"/>
  </g>
  <path d="M 102.1 102.1 L 237.5 102.1 L 237.5 192.4 L 147.2 192.4 L 147.2 327.8" stroke="#B77CFF" stroke-width="28.0" fill="none" stroke-linecap="round" stroke-linejoin="round"/>
  <polygon points="147.2,364.8 117.6,310.1 176.9,310.1" fill="#B77CFF"/>
  <g filter="url(#glow)">
    <path d="M 282.6 102.1 L 372.9 102.1 L 372.9 192.4" stroke="#4ADE80" stroke-width="28.0" fill="none" stroke-linecap="round" stroke-linejoin="round"/>
    <polygon points="372.9,229.4 343.3,174.7 402.5,174.7" fill="#4ADE80"/>
  </g>
  <path d="M 282.6 102.1 L 372.9 102.1 L 372.9 192.4" stroke="#4ADE80" stroke-width="28.0" fill="none" stroke-linecap="round" stroke-linejoin="round"/>
  <polygon points="372.9,229.4 343.3,174.7 402.5,174.7" fill="#4ADE80"/>
  <g filter="url(#glow)">
    <path d="M 192.4 372.9 L 327.8 372.9 L 327.8 282.6" stroke="#FB7185" stroke-width="28.0" fill="none" stroke-linecap="round" stroke-linejoin="round"/>
    <polygon points="327.8,245.6 357.4,300.3 298.1,300.3" fill="#FB7185"/>
  </g>
  <path d="M 192.4 372.9 L 327.8 372.9 L 327.8 282.6" stroke="#FB7185" stroke-width="28.0" fill="none" stroke-linecap="round" stroke-linejoin="round"/>
  <polygon points="327.8,245.6 357.4,300.3 298.1,300.3" fill="#FB7185"/>
  <g filter="url(#glow)">
    <path d="M 237.5 282.6 L 237.5 372.9 L 147.2 372.9" stroke="#FADC4A" stroke-width="28.0" fill="none" stroke-linecap="round" stroke-linejoin="round"/>
    <polygon points="110.2,372.9 164.9,343.3 164.9,402.5" fill="#FADC4A"/>
  </g>
  <path d="M 237.5 282.6 L 237.5 372.9 L 147.2 372.9" stroke="#FADC4A" stroke-width="28.0" fill="none" stroke-linecap="round" stroke-linejoin="round"/>
  <polygon points="110.2,372.9 164.9,343.3 164.9,402.5" fill="#FADC4A"/>
  </g>
  <rect x="305" y="502" width="469" height="469" rx="102" fill="none" stroke="#ffffff" stroke-opacity="0.09" stroke-width="3"/>
  <text x="540" y="1185" text-anchor="middle" font-family="Poppins, Arial, sans-serif" font-weight="700" font-size="150" fill="#7AA0EC" opacity="0.55" filter="url(#textglow)">ArrowMaze</text>
  <text x="540" y="1185" text-anchor="middle" font-family="Poppins, Arial, sans-serif" font-weight="700" font-size="150" fill="#FFFFFF">ArrowMaze</text>
  <text x="540" y="1358" text-anchor="middle" font-family="Poppins, Arial, sans-serif" font-weight="500" font-size="46" letter-spacing="1" fill="#96A5C3">Untangle the neon paths</text>
  <circle cx="432.0" cy="1728.0" r="13.0" fill="#B77CFF"/><circle cx="486.0" cy="1728.0" r="13.0" fill="#38BDF8"/><circle cx="540.0" cy="1728.0" r="13.0" fill="#4ADE80"/><circle cx="594.0" cy="1728.0" r="13.0" fill="#FB7185"/><circle cx="648.0" cy="1728.0" r="13.0" fill="#FADC4A"/>
</svg>